#!OML:ASF F:\Work\Patient Classification 1\justin\Session 1\justin.ASF
:FULLY-SPECIFIED
:DEGREES
3499
root 1.44288 16.7682 -0.43382 -2.25525 50.044 1.20987
lowerback 12.4392 -2.8795 -6.04186
upperback 1.01758 -4.46851 2.7082
thorax -5.2073 -2.0335 7.01654
lowerneck -2.78473 -12.6858 -22.4611
upperneck 7.25874 -17.7053 19.1903
head 6.44811 -8.64594 8.1548
rclavicle 1.04362e-013 -1.94809e-014
rhumerus -27.0444 6.59145 -80.9245
rradius 139.643
rwrist -3.90336
rhand -16.3511 38.1701
rfingers 7.12502
rthumb 9.86141 8.42107
lclavicle 1.04362e-013 -1.94809e-014
lhumerus -6.74818 -32.516 99.4596
lradius 130.013
lwrist 4.53778
lhand -11.54 7.09697
lfingers 7.12502
lthumb 14.5002 36.5703
rfemur -19.3598 1.00771 -3.34106
rtibia 29.1002
rfoot 0.152862 -17.7516
rtoes -10.5231
lfemur 0.61465 5.00371 -12.1961
ltibia 41.6655
lfoot -30.6561 -3.36443
ltoes -22.6585
3500
root 1.43595 16.7571 -0.417654 -2.26946 49.9929 1.15442
lowerback 12.4298 -2.92038 -6.10176
upperback 1.0541 -4.52751 2.74329
thorax -5.14609 -2.06497 7.094
lowerneck -3.04973 -12.6848 -22.2192
upperneck 7.16789 -17.6328 19.0323
head 6.4104 -8.59549 8.06026
rclavicle -9.44227e-015 4.77083e-015
rhumerus -26.8555 6.80807 -80.8326
rradius 139.735
rwrist -3.53838
rhand -16.5954 38.5277
rfingers 7.12502
rthumb 9.62573 8.76764
lclavicle -9.44227e-015 4.77083e-015
lhumerus -6.46386 -32.1559 99.2455
lradius 130.381
lwrist 5.29482
lhand -11.0837 6.94216
lfingers 7.12502
lthumb 14.9399 36.3833
rfemur -19.6895 1.23648 -3.28822
rtibia 29.6878
rfoot -0.17646 -17.946
rtoes -10.7956
lfemur 0.394307 4.8046 -12.0824
ltibia 42.1275
lfoot -30.6334 -3.7104
ltoes -22.4211
3501
root 1.42698 16.7398 -0.402045 -2.25894 49.9758 1.11904
lowerback 12.4986 -3.01709 -6.14483
upperback 1.03572 -4.66523 2.75853
thorax -5.17666 -2.12996 7.16114
lowerneck -3.12416 -12.6346 -21.9005
upperneck 6.84878 -17.5037 18.8432
head 6.24743 -8.52854 7.9659
rclavicle 7.95139e-016 -4.77083e-015
rhumerus -26.9315 7.40355 -81.0959
rradius 140.042
rwrist -2.49413
rhand -17.2866 38.7672
rfingers 7.12502
rthumb 8.9588 8.97738
lclavicle 7.95139e-016 -4.77083e-015
lhumerus -6.14054 -31.6358 98.9657
lradius 130.864
lwrist 6.23088
lhand -10.0506 7.99425
lfingers 7.12502
lthumb 15.9349 37.3587
rfemur -20.1073 0.794267 -3.21673
rtibia 30.3684
rfoot -0.155177 -17.5177
rtoes -12.2284
lfemur 0.131311 4.63336 -11.9698
ltibia 42.591
lfoot -30.6472 -3.60618
ltoes -23.6885
3502
root 1.41494 16.7213 -0.379468 -2.29791 49.955 1.06124
lowerback 12.6343 -3.06758 -6.24878
upperback 1.00224 -4.75362 2.78254
thorax -5.26265 -2.16584 7.27226
lowerneck -3.26772 -12.6794 -21.4587
upperneck 6.64993 -17.487 18.4186
head 6.12154 -8.51693 7.75109
rclavicle -1.01977e-013 7.95139e-015
rhumerus -26.8683 7.77521 -81.0704
rradius 140.316
rwrist -1.77648
rhand -17.3926 39.3632
rfingers 7.12502
rthumb 8.85654 9.56906
lclavicle -1.01977e-013 7.95139e-015
lhumerus -5.87206 -31.4649 98.7673
lradius 130.3
lwrist 5.01454
lhand -11.3155 6.96164
lfingers 7.12502
lthumb 14.7166 36.4193
rfemur -20.5217 0.500394 -3.12959
rtibia 31.1139
rfoot -0.286257 -17.2114
rtoes -12.8334
lfemur -0.0634701 4.50937 -11.7603
ltibia 42.9941
lfoot -30.6775 -3.91832
ltoes -24.0099
